<?xml version="1.0" encoding="UTF-8"?>
<!DOCTYPE svg PUBLIC "-//W3C//DTD SVG 1.1//EN" "http://www.w3.org/Graphics/SVG/1.1/DTD/svg11.dtd">
<!-- Creator: CorelDRAW Standard 2021 (64 Bit) -->
<svg xmlns="http://www.w3.org/2000/svg" xml:space="preserve" width="34.8mm" height="13.21mm" version="1.1" style="shape-rendering:geometricPrecision; text-rendering:geometricPrecision; image-rendering:optimizeQuality; fill-rule:evenodd; clip-rule:evenodd"
viewBox="0 0 3480 1321"
 xmlns:xlink="http://www.w3.org/1999/xlink"
 xmlns:xodm="http://www.corel.com/coreldraw/odm/2003">
 <defs>
  <style type="text/css">
   <![CDATA[
    .fil2 {fill:#0570FD}
    .fil0 {fill:#2BA8FE}
    .fil7 {fill:#37363A}
    .fil4 {fill:#57555A}
    .fil3 {fill:#575659}
    .fil5 {fill:#8E9295}
    .fil9 {fill:#8E9396}
    .fil1 {fill:#BFDAEB}
    .fil8 {fill:#F8F8F8}
    .fil11 {fill:#FDC00F}
    .fil10 {fill:#FDFEFD}
    .fil6 {fill:#FF4B40}
   ]]>
  </style>
 </defs>
 <g id="Camada_x0020_1">
  <metadata id="CorelCorpID_0Corel-Layer"/>
  <g id="_1950189865936">
   <path class="fil0" d="M3353.23 882.43c15.15,77.89 92.46,41.46 74.45,-38.22 -16.82,-74.37 -89,-36.61 -74.45,38.22zm-1415.57 -375.81c-11.24,-2.89 -126.97,-2.74 -145.04,-1.27 -54.18,4.42 -53.12,68.99 -11.1,79.33 14.42,3.54 127.27,3.17 146.96,1.67 52.3,-3.99 55.92,-67.74 9.18,-79.73zm1263.85 4.12c-120.57,-38.51 22.82,160.89 144.55,195.45 118.32,33.6 -18.92,-155.31 -144.55,-195.45zm-1620.4 -402.41c-190.9,-2.97 -402.43,9.31 -579.59,53.55 -151.95,37.94 -352.7,123.5 -359.82,277.65l6.5 0 934.03 0 -1.12 -331.2zm1868.08 838.85l-290.08 -1.89c-18.99,-44.12 -27.82,-71.35 -53.63,-108.58 -26.2,-37.8 -48.58,-59.8 -80.96,-86.3 -205.89,-168.54 -545.14,-85.35 -632.5,195.49l-692.13 -0.78 0.68 -505.56 867.92 -0.47c-8.06,-15.17 -27.83,-28.64 -42.27,-39.7 -234.26,-179.25 -570.26,-280.85 -865.42,-288.03l-1.59 327.93 0.99 534.56 -3.68 -28.73 -656.54 -1.37c-37.32,-79.79 -54.73,-132.83 -137.63,-196.27 -207.57,-158.82 -502.4,-80.33 -607.65,141.95 -8.89,18.78 -14.55,40.71 -24.13,58.7 -23.32,-9.35 -165.18,-2.98 -202.87,-2.98l-3.22 7.28c-8.05,-10.49 -8.41,-19.53 -12.24,-36.86 -23.44,-106.04 -13.9,-177.51 5.19,-280.24 97.66,28.34 81.04,25.68 128.81,-43.63 15.9,-23.07 80.35,-106.15 81.52,-131.73 -2.21,-10.48 -58.5,-58.54 -70.79,-66.92 -13.02,-16.73 -20.33,-25.89 -35.03,-40.55 -4.64,-4.62 -13.14,-13.06 -17,-18.73 -15.88,-23.36 -1.65,-22.72 -1.56,-22.8 17.83,-13.25 110.31,-4.79 140.24,-5.1 31.52,-0.32 30.99,-7.28 53.15,-21.29 74.28,-46.96 157.66,-84.92 243.01,-117.81 558.58,-215.28 1423.96,-220.83 1958.98,48.86 97.12,48.95 184.62,102.13 265.78,169.96 24.8,20.73 9.18,21.54 53.02,21.06 23.52,-0.27 47.05,-0.16 70.58,-0.16 218.46,0 327.93,-1.2 462.54,118.96 49.14,43.86 85.09,94.85 108.13,182.35 15.52,58.98 37.47,198.37 -9.62,239.38z"/>
   <path class="fil1" d="M1582.23 439.53l-934.03 0 -6.5 0c7.12,-154.15 207.87,-239.71 359.82,-277.65 177.16,-44.24 388.69,-56.52 579.59,-53.55l1.12 331.2z"/>
   <path class="fil1" d="M1700.57 439.56l-41.36 -0.27 1.59 -327.93c295.16,7.18 631.16,108.78 865.42,288.03 14.44,11.06 34.21,24.53 42.27,39.7l-867.92 0.47z"/>
   <path class="fil2" d="M2381.25 1090.55l-1372.22 -1.17c18.04,-45.2 -0.62,-100.04 -9.05,-145.63l656.54 1.37 3.68 28.73 39.11 0.74 0.58 -29.47 692.13 0.78c-15.13,45.76 -22.63,98.5 -10.77,144.65z"/>
   <path class="fil3" d="M656.65 911.96c-205.7,-54.76 -288.02,254.17 -83.87,309.8 98.36,26.8 181.18,-39.91 200.01,-113.38 26.38,-102.9 -41.77,-176.63 -116.14,-196.42zm223.63 176.86l-0.38 4.43c-10.27,130.57 -126.18,238.17 -266.89,236.92 -77.6,-0.69 -141.56,-34.5 -180.21,-73.9 -61.59,-62.76 -62.95,-84.43 -82.35,-166.04 1.98,-99.12 19.61,-147.95 72.8,-203.88 41.65,-43.79 105.34,-83.26 194.19,-82.87 148.72,0.66 280.35,128.44 262.84,285.34z"/>
   <path class="fil4" d="M2934.22 1098.06c41.31,-210.41 -275.56,-266.35 -317.62,-65.15 -44.38,212.34 277,272.07 317.62,65.15zm105.69 -6.99c-19.84,134.97 -119.15,239.71 -266.22,239.11 -148.65,-0.6 -242.73,-106.71 -263.9,-239.94 -3.07,-384.32 539.12,-377.38 530.12,0.83z"/>
   <path class="fil5" d="M3159.11 945.29c9.93,50.2 24.99,93.36 9.72,145.07 -32.25,34.03 -60.42,30.63 -94.53,0.83 -18.21,-74.26 -4.92,-145.05 -85,-226.26 -132.95,-134.85 -330.32,-115.44 -430.4,0.73 -91.48,106.19 -61.48,167.84 -83.65,223.77 -11.25,11.43 -23.02,25.69 -48.77,24.78 -24.43,-0.86 -29.85,-11.21 -45.23,-23.66 -11.86,-46.15 -4.36,-98.89 10.77,-144.65 87.36,-280.84 426.61,-364.03 632.5,-195.49 32.38,26.5 54.76,48.5 80.96,86.3 25.81,37.23 34.64,64.46 53.63,108.58z"/>
   <path class="fil5" d="M999.98 943.75c8.43,45.59 27.09,100.43 9.05,145.63 -14.11,13.68 -26.92,31.01 -58.97,23.35 -17.61,-4.21 -17.39,-10.92 -27.78,-16.03 -13.16,-6.48 -24.55,-3.5 -42.38,-3.45l0.38 -4.43 34.78 -0.57c-13.2,-44.57 -6.47,-82.99 -25.26,-130.26 -100.72,-253.34 -455.25,-245.43 -548.57,4.6 -17.71,47.45 -12.05,82.46 -24.36,128.58 -33.95,32.57 -62.21,30.98 -94.57,-0.7 -16.09,-59.94 1.93,-88.7 8.27,-142.34 9.58,-17.99 15.24,-39.92 24.13,-58.7 105.25,-222.28 400.08,-300.77 607.65,-141.95 82.9,63.44 100.31,116.48 137.63,196.27z"/>
   <path class="fil5" d="M2796.58 1008.15c-77.73,-29.67 -120.84,88.38 -45.59,117.02 78.9,30.03 126.49,-86.14 45.59,-117.02zm137.64 89.91c-40.62,206.92 -362,147.19 -317.62,-65.15 42.06,-201.2 358.93,-145.26 317.62,65.15z"/>
   <path class="fil5" d="M638.68 1008.98c-78.39,-32.15 -120.81,84.53 -47.89,115.86 76.27,32.76 129.78,-82.28 47.89,-115.86zm17.97 -97.02c74.37,19.79 142.52,93.52 116.14,196.42 -18.83,73.47 -101.65,140.18 -200.01,113.38 -204.15,-55.63 -121.83,-364.56 83.87,-309.8z"/>
   <path class="fil6" d="M17.43 635.33c-33.71,-15.4 -18.14,-39.83 -3.69,-70.54 24.02,-51.04 46.76,-87.32 81.83,-129.31 15.92,-19.05 26.92,-45.54 61.4,-42.43 12.29,8.38 68.58,56.44 70.79,66.92 -1.17,25.58 -65.62,108.66 -81.52,131.73 -47.77,69.31 -31.15,71.97 -128.81,43.63z"/>
   <path class="fil2" d="M3168.83 1090.36c15.27,-51.71 0.21,-94.87 -9.72,-145.07l290.08 1.89c-3.06,36.53 -69.71,91.95 -100.46,109.75 -60.02,34.75 -104.26,30.77 -179.9,33.43z"/>
   <path class="fil7" d="M3074.3 1091.19l-34.39 -0.12c9,-378.21 -533.19,-385.15 -530.12,-0.83l-34.54 -0.81c22.17,-55.93 -7.83,-117.58 83.65,-223.77 100.08,-116.17 297.45,-135.58 430.4,-0.73 80.08,81.21 66.79,152 85,226.26z"/>
   <path class="fil7" d="M880.28 1088.82c17.51,-156.9 -114.12,-284.68 -262.84,-285.34 -88.85,-0.39 -152.54,39.08 -194.19,82.87 -53.19,55.93 -70.82,104.76 -72.8,203.88l-33.58 0.94c12.31,-46.12 6.65,-81.13 24.36,-128.58 93.32,-250.03 447.85,-257.94 548.57,-4.6 18.79,47.27 12.06,85.69 25.26,130.26l-34.78 0.57z"/>
   <path class="fil8" d="M3201.51 510.74c125.63,40.14 262.87,229.05 144.55,195.45 -121.73,-34.56 -265.12,-233.96 -144.55,-195.45z"/>
   <path class="fil2" d="M222.3 1090.47c-57.54,-3.92 -89.49,-10.68 -129.56,-39.85 -20.93,-15.24 -66.5,-62.56 -68.26,-98.19l3.22 -7.28c37.69,0 179.55,-6.37 202.87,2.98 -6.34,53.64 -24.36,82.4 -8.27,142.34z"/>
   <polygon class="fil9" points="1699.89,945.12 1699.31,974.59 1660.2,973.85 1659.21,439.29 1700.57,439.56 "/>
   <path class="fil10" d="M1937.66 506.62c46.74,11.99 43.12,75.74 -9.18,79.73 -19.69,1.5 -132.54,1.87 -146.96,-1.67 -42.02,-10.34 -43.08,-74.91 11.1,-79.33 18.07,-1.47 133.8,-1.62 145.04,1.27z"/>
   <path class="fil10" d="M638.68 1008.98c81.89,33.58 28.38,148.62 -47.89,115.86 -72.92,-31.33 -30.5,-148.01 47.89,-115.86z"/>
   <path class="fil10" d="M2796.58 1008.15c80.9,30.88 33.31,147.05 -45.59,117.02 -75.25,-28.64 -32.14,-146.69 45.59,-117.02z"/>
   <path class="fil11" d="M3353.23 882.43c-14.55,-74.83 57.63,-112.59 74.45,-38.22 18.01,79.68 -59.3,116.11 -74.45,38.22z"/>
  </g>
 </g>
</svg>
